<?xml version="1.0" encoding="UTF-8"?>
<!DOCTYPE svg PUBLIC "-//W3C//DTD SVG 1.1//EN" "http://www.w3.org/Graphics/SVG/1.1/DTD/svg11.dtd">
<!-- Creator: CorelDRAW -->
<svg xmlns="http://www.w3.org/2000/svg" xml:space="preserve" width="105mm" height="105mm" style="shape-rendering:geometricPrecision; text-rendering:geometricPrecision; image-rendering:optimizeQuality; fill-rule:evenodd; clip-rule:evenodd"
viewBox="0 0 105 105">
 <defs>
  <style type="text/css">
   <![CDATA[
    .str3 {stroke:white;stroke-width:0.7056}
    .str1 {stroke:#1F1A17;stroke-width:1.4111}
    .str0 {stroke:#1F1A17;stroke-width:1.4111;stroke-linejoin:bevel}
    .str2 {stroke:#FCC917;stroke-width:1.4111}
    .fil4 {fill:none}
    .fil5 {fill:#1F1A17}
    .fil2 {fill:#DA251D}
    .fil3 {fill:#FFF500}
    .fil0 {fill:#9900FF}
    .fil1 {fill:#E0AD12}
    .fil7 {fill:#FADE69}
    .fil8 {fill:#FAE073}
    .fil6 {fill:#FCD647}
   ]]>
  </style>
 </defs>
 <g id="Capa_x0020_1">
  <metadata id="CorelCorpID_0Corel-Layer"/>
  <g id="_225607840">
   <circle id="_357884304" class="fil0 str0" cx="52.5775" cy="52.5815" r="49.0506"/>
   <path id="_354063144" class="fil1 str0" d="M52.5776 52.5814l19.9531 -44.8108c17.6957,7.8747 29.0975,25.4385 29.0975,44.8108l-49.0506 0z"/>
   <path id="_354062568" class="fil2 str0" d="M52.5776 52.5814l-10.1983 -47.9787c3.3476,-0.7066 6.7728,-1.0719 10.1983,-1.0719 6.8687,0 13.6833,1.4491 19.9531,4.2398l-19.9531 44.8108z"/>
   <path id="_354062976" class="fil3 str0" d="M52.5776 52.5814l-36.4512 -32.8222c6.9225,-7.689 16.1265,-13.0067 26.2529,-15.1565l10.1983 47.9787z"/>
   <circle id="_357884616" class="fil4 str0" cx="52.5776" cy="52.5815" r="33.4386"/>
   <circle id="_354059760" class="fil5 str1" cx="52.5775" cy="52.5815" r="33.3562"/>
   <ellipse id="_354062952" class="fil6 str2" cx="52.7608" cy="51.9756" rx="22.5002" ry="22.5003"/>
   <circle id="_354063216" class="fil7" cx="52.7607" cy="51.9755" r="17.5606"/>
   <ellipse id="_354061464" class="fil6" cx="52.7608" cy="51.9756" rx="10.8393" ry="10.8394"/>
   <circle id="_224185648" class="fil8" cx="52.7608" cy="51.9756" r="8.43813"/>
   <g id="_291005944">
    <path id="_292161216" class="fil5 str3" d="M52.9317 31.6694c1.0558,-0.0351 2.0837,-0.0052 3.0132,0.2544l-1.3484 4.9327c0.8424,1.394 2.2772,2.0685 4.3048,2.0234l9.9994 -0.8695 -5.2606 7.13c-4.1927,0.7678 -7.3014,0.6065 -8.8255,-0.913l-1.901 4.4784 -1.8647 -4.4784c-1.5242,1.5195 -4.6328,1.6808 -8.8256,0.913l-5.2606 -7.13 9.9995 0.8695c2.0275,0.0451 3.4624,-0.6294 4.3048,-2.0234l-1.3484 -4.9327c0.9295,-0.2596 1.9573,-0.2895 3.0131,-0.2544z"/>
    <path id="_292168128" class="fil5 str3" d="M35.2383 61.5826c0.4939,0.9338 1.0303,1.8111 1.7173,2.489l3.6118 -3.6202c1.6282,0.0388 2.9262,0.9493 3.894,2.7314l4.2116 9.1109 3.5758 -8.107c-1.4159,-4.0205 -3.0998,-6.6385 -5.1756,-7.2068l2.9429 -3.8741 -4.8131 0.6057c0.5618,-2.0775 -0.8421,-4.8558 -3.5908,-8.1136l-8.8012 -1.0248 5.7209 8.2472c1.0461,1.7374 1.1734,3.3177 0.3818,4.7412l-4.9511 1.2795c0.2364,0.9357 0.7209,1.8427 1.2757,2.7416z"/>
    <path id="_291026008" class="fil5 str3" d="M70.2835 61.5826c-0.4939,0.9338 -1.0303,1.8111 -1.7173,2.489l-3.6117 -3.6202c-1.6283,0.0388 -2.9263,0.9493 -3.8942,2.7314l-4.2114 9.1109 -3.5759 -8.107c1.4159,-4.0205 3.0998,-6.6385 5.1756,-7.2068l-2.9429 -3.8741 4.8131 0.6057c-0.5618,-2.0775 0.842,-4.8558 3.5908,-8.1136l8.8011 -1.0248 -5.7208 8.2472c-1.0462,1.7374 -1.1734,3.3177 -0.3818,4.7412l4.951 1.2795c-0.2363,0.9357 -0.7208,1.8427 -1.2756,2.7416z"/>
   </g>
  </g>
 </g>
</svg>
